<?xml version="1.0" encoding="utf-8"?>
<!-- Generator: Adobe Illustrator 19.0.0, SVG Export Plug-In . SVG Version: 6.00 Build 0)  -->
<svg version="1.1" id="Layer_1" xmlns="http://www.w3.org/2000/svg" xmlns:xlink="http://www.w3.org/1999/xlink" x="0px" y="0px"
	 viewBox="0 0 46.985 26.136" style="enable-background:new 0 0 46.985 26.136;" xml:space="preserve">
<path d="M46.39,15.557l0.158-0.277L32.402,1.459c-0.844-0.979-2.266-1.835-3.719-1.289c-2.047,0.761-2.311,3.495-2.311,5.793
	c0,0.993,0.805,1.796,1.795,1.796c0.994,0,1.797-0.803,1.797-1.796c0-0.794,0.045-1.368,0.102-1.773l8.707,8.511
	c-0.24-0.048-0.494-0.077-0.764-0.077H28.07c-1.74,0-3.592,1.26-3.592,3.592v0.414c-0.346-0.078-0.701-0.131-1.072-0.131
	c-0.346,0-0.68,0.041-1.004,0.109v-0.393c0-1.741-1.26-3.592-3.592-3.592H8.87c-0.213,0-0.428,0.02-0.639,0.059l8.687-8.502
	c0.057,0.407,0.102,0.98,0.102,1.782c0,0.993,0.805,1.796,1.795,1.796c0.994,0,1.797-0.803,1.797-1.796
	c0-2.298-0.264-5.032-2.311-5.793c-1.449-0.535-2.873,0.311-3.613,1.179L0.437,15.28l0.16,0.277
	c-0.451,0.737-0.906,1.845-0.316,3.036c0.812,1.643,3.027,1.986,4.998,2.06v1.395c0,1.742,1.26,3.592,3.592,3.592h9.939
	c1.742,0,3.592-1.26,3.592-3.592v-1.265c0.092-0.386,0.504-0.692,1.004-0.692c0.565,0,1.041,0.385,1.041,0.844h0.031v1.609
	c0,1.742,1.26,3.592,3.592,3.592h9.939c1.742,0,3.592-1.259,3.592-3.592v-1.887c1.996-0.063,4.275-0.392,5.105-2.064
	C47.294,17.404,46.839,16.294,46.39,15.557z M4.009,16.934c0.062-0.091,0.133-0.196,0.201-0.317l1.141-1.115
	c-0.041,0.226-0.072,0.463-0.072,0.715v0.837C4.741,17.027,4.3,16.985,4.009,16.934z M8.87,22.048v-5.832h9.939l-0.051,5.832H8.87z
	 M37.958,22.544H28.07v-6.328h9.939L37.958,22.544z M41.601,17.058v-0.842c0-0.289-0.047-0.576-0.115-0.863l1.293,1.264
	c0.066,0.121,0.137,0.227,0.199,0.317C42.665,16.988,42.195,17.033,41.601,17.058z"/>
</svg>
