<?xml version="1.0" encoding="utf-8"?>
<!-- Generator: Adobe Illustrator 18.1.1, SVG Export Plug-In . SVG Version: 6.00 Build 0)  -->
<svg version="1.1" id="Layer_1" xmlns="http://www.w3.org/2000/svg" xmlns:xlink="http://www.w3.org/1999/xlink" x="0px" y="0px"
	 viewBox="0 0 29.954 22.639" style="enable-background:new 0 0 29.954 22.639;" xml:space="preserve">
<g>
	<path style="fill:#AB004F;" d="M12.408,1.791c-0.572-0.622-1.12-0.98-1.529-1.232c-0.477-0.301-2.197-0.973-2.84-0.199
		C8.01,0.392,8.029,0.498,8.061,0.554c0.723,1.36,3.884,9.993,4.396,12.481c0,0-2.096-0.956-2.444-1.163
		C9.57,11.609,4.219,9.339,3.594,9.527c-0.354,0.106-2.867,0.822-3,0.985c-0.134,0.164-0.643,0.904-0.59,1.152
		c0.158,0.753,3.328,3.005,4.426,4.056c1.51,1.419,7.93,5.458,9.805,6.422c0.046,0.025,0.631,0.33,0.684,0.338
		c0.017,0.003,0.409,0.159,0.409,0.159s0.648-0.09,0.667-0.092c1.354-0.194,3.994-1.207,4.814-1.352
		c0.834-0.146,3.944-3.211,3.944-3.211s2.614-3.954,3.023-4.688c0.444-0.778,1.67-3.076,1.76-3.303
		c0.162-0.405,0.684-1.55,0.25-2.855l-1.494-0.272c0,0-0.848-0.108-1.861,0.869c-1.045,1.021-3.266,3.92-3.327,4.173
		c-0.011,0.042,0.022-0.279,0.017-0.508c0,0-0.457-6.073-1.476-7.718c-1.029-1.671-1.678-1.876-1.817-1.923
		c-0.246-0.08-0.214-0.11-0.477-0.198c-0.346-0.104-0.86,0.405-1.182,0.836c0,0-0.447,7.052-0.283,8.463
		c0.035,0.303-0.188-0.131-0.222-0.19c-0.177-0.294-2.315-5.304-4.033-7.433C13.628,3.239,12.717,2.134,12.408,1.791"/>
</g>
</svg>
