<?xml version="1.0" encoding="utf-8"?>
<!-- Generator: Adobe Illustrator 19.0.0, SVG Export Plug-In . SVG Version: 6.00 Build 0)  -->
<svg version="1.1" id="Layer_1" xmlns="http://www.w3.org/2000/svg" xmlns:xlink="http://www.w3.org/1999/xlink" x="0px" y="0px"
	 viewBox="0 0 23.687 26.858" style="enable-background:new 0 0 23.687 26.858;" xml:space="preserve">
<path d="M11.648,10.206c0.074-0.751,0.209-2.695,0.393-3.613c0.336-1.671,0.836-3.867,1.195-4.498
	c0.865-1.477,2.82-2.047,3.207-2.093c0.381-0.047,2.656,0.666,3.219,1.06c0.213,0.143,2.863,2.962,3.844,5.83
	c0.99,2.946-2.381,9.453-2.858,10.318c-0.664,1.212-8.098,9.595-8.098,9.595s-1.355,0.078-1.684,0.044c0,0-3.293-4.052-4.848-5.349
	c-0.654-0.557-3.484-3.924-4.109-4.831c0,0-3.264-4.655-1.258-10.408c0.355-1.008,1.574-1.843,2.727-2.555
	c0.82-0.521,1.082-0.2,1.34-0.02c0.256,0.202,1.246,0.75,3.533,2.915c2.354,2.317,2.482,3.059,3.002,3.774
	c0.141,0.198,0.26,0.223,0.26,0.223S11.625,10.415,11.648,10.206"/>
</svg>
