<?xml version="1.0" encoding="utf-8"?>
<!-- Generator: Adobe Illustrator 19.0.0, SVG Export Plug-In . SVG Version: 6.00 Build 0)  -->
<svg version="1.1" id="Layer_1" xmlns="http://www.w3.org/2000/svg" xmlns:xlink="http://www.w3.org/1999/xlink" x="0px" y="0px"
	 viewBox="0 0 30.261 24.264" style="enable-background:new 0 0 30.261 24.264;" xml:space="preserve">
<g>
	<path style="fill:none;stroke:#AB004F;stroke-width:1.096;" d="M24.968,5.174"/>
	<g>
		<path style="fill:none;" d="M20.435,1.796H9.825C9.421,1.807,8.927,1.971,8.927,2.694v2.973h12.407V2.694
			C21.323,2.29,21.159,1.796,20.435,1.796z"/>
		<path d="M23.13,5.667V2.694C23.13,1.611,22.412,0,20.435,0H9.825C8.742,0,7.131,0.717,7.131,2.694v2.973H5.793v18.597h18.675
			V5.667H23.13z M21.334,5.667H8.927V2.694c0-0.723,0.494-0.887,0.898-0.898h10.61c0.724,0,0.888,0.494,0.899,0.898V5.667z"/>
		<path d="M2.789,5.667c0,0-2.789,0-2.789,2.789v13.017c0,0,0,2.791,2.789,2.791h1.035V5.667H2.789z"/>
		<path d="M27.47,5.667h-1.034v18.597h1.034c0,0,2.791,0,2.791-2.791V8.456C30.261,8.456,30.261,5.667,27.47,5.667z"/>
	</g>
</g>
</svg>
