<?xml version="1.0" encoding="utf-8"?>
<!-- Generator: Adobe Illustrator 19.0.0, SVG Export Plug-In . SVG Version: 6.00 Build 0)  -->
<svg version="1.1" id="Layer_1" xmlns="http://www.w3.org/2000/svg" xmlns:xlink="http://www.w3.org/1999/xlink" x="0px" y="0px"
	 viewBox="0 0 25.387 32.12" style="enable-background:new 0 0 25.387 32.12;" xml:space="preserve">
<path d="M19.188,31.479c0,0-0.59-3.76,0.291-5.203c0.883-1.443,2.861-7.95,2.982-8.615c0.117-0.667,2.736-8.431,2.736-8.431
	s0.523-0.595-0.17-1.401c-0.693-0.807-1.174-0.437-1.496,0.193c-0.318,0.629-2.267,5.77-2.267,5.77l-0.561,0.816
	c-0.732-0.586,0.648-6.056,0.648-6.056l1.385-5.469c0,0,0.395-1.072-0.818-1.288c-1.213-0.214-1.41,0.895-1.41,0.895L18.964,7.9
	L17.7,12.708c0,0-0.844,1.223-0.731-0.587c0.109-1.81,0.609-5.833,0.609-5.833l0.658-4.913c0,0-0.211-1.18-1.223-1.357
	c-1.01-0.177-1.447,1.116-1.447,1.116l-0.736,5.354c0,0-0.004,5.942-0.893,6.242c-0.887,0.301-1.209-6.155-1.209-6.155l-0.186-3.69
	c0,0-0.449-0.993-1.299-0.914C10.397,2.049,9.96,3.342,9.96,3.342l-0.029,8.45c0,0,0.598,4.906-0.932,6.465
	c-1.525,1.56-0.842,1.223-1.697,0.158c-0.856-1.065-3.906-3.889-5.359-3.917c-1.457-0.028-2.383,0.495-1.729,1.524
	c0.65,1.03,4.191,4.625,4.191,4.625s3.897,5.226,4.564,6.062c0.855,1.064,1.713,2.129,1.799,2.828
	c0.311,2.584,0.379,2.582,0.379,2.582L19.188,31.479z"/>
</svg>
