<?xml version="1.0" encoding="utf-8"?>
<!-- Generator: Adobe Illustrator 18.1.1, SVG Export Plug-In . SVG Version: 6.00 Build 0)  -->
<svg version="1.1" id="Layer_1" xmlns="http://www.w3.org/2000/svg" xmlns:xlink="http://www.w3.org/1999/xlink" x="0px" y="0px"
	 viewBox="0 0 68.889 84.484" style="enable-background:new 0 0 68.889 84.484;" xml:space="preserve">
<g>
	<g>
		<path style="fill:#AB004F;" d="M3.814,73.714H2.542L0,66.95h1.38l1.418,4.031c0.15,0.433,0.284,0.852,0.394,1.271h0.026
			c0.109-0.393,0.237-0.826,0.393-1.23l1.461-4.072h1.325L3.814,73.714z"/>
	</g>
	<rect x="8.349" y="66.95" style="fill:#AB004F;" width="1.232" height="6.764"/>
	<g>
		<path style="fill:#AB004F;" d="M14.944,67.72c-0.878,0-1.515,0.678-1.65,1.665h3.163C16.486,68.398,15.891,67.72,14.944,67.72
			 M17.663,70.249h-4.422c-0.055,1.813,0.704,2.585,2.136,2.585c0.69,0,1.435-0.164,1.975-0.42l0.108,1.003
			c-0.648,0.27-1.447,0.419-2.284,0.419c-2.085,0-3.192-1.096-3.192-3.478c0-2.013,1.095-3.529,3.016-3.529
			c1.906,0,2.704,1.299,2.704,2.84C17.703,69.832,17.689,70.02,17.663,70.249"/>
		<path style="fill:#AB004F;" d="M23.239,68.018c-1.45-0.243-2.128,0.813-2.128,2.975v2.721h-1.216V66.95h1.176
			c0,0.419-0.039,1.04-0.147,1.609h0.026c0.284-0.946,0.973-1.88,2.343-1.731L23.239,68.018z"/>
		<path style="fill:#AB004F;" d="M26.01,73.861c-0.474,0-0.96-0.053-1.392-0.107l0.04-1.692c0.406,0.121,0.919,0.216,1.405,0.216
			c0.528,0,0.851-0.216,0.851-0.529c0-0.986-2.473-0.458-2.473-2.702c0-1.233,0.987-2.26,2.974-2.26
			c0.378,0,0.828,0.055,1.206,0.108l-0.04,1.625c-0.351-0.109-0.814-0.163-1.221-0.163c-0.526,0-0.77,0.203-0.77,0.515
			c0,0.838,2.545,0.58,2.545,2.703C29.136,72.968,27.896,73.861,26.01,73.861"/>
		<path style="fill:#AB004F;" d="M33.639,73.849c-1.516,0-1.975-0.541-1.975-2.126v-3.42H30.5V66.95h1.15v-2.084l1.759-0.459v2.543
			h1.636v1.353h-1.636v2.962c0,0.865,0.202,1.107,0.797,1.107c0.284,0,0.596-0.04,0.839-0.107v1.408
			C34.612,73.781,34.112,73.849,33.639,73.849"/>
		<path style="fill:#AB004F;" d="M40.458,68.25c-1.338-0.259-1.987,0.689-1.987,2.717v2.747h-1.476V66.95h1.408
			c0,0.378-0.041,0.973-0.153,1.502h0.032c0.31-0.92,0.986-1.76,2.243-1.638L40.458,68.25z"/>
		<path style="fill:#AB004F;" d="M44.918,67.841c-0.973,0-1.922,0.759-1.922,2.421c0,1.637,0.692,2.53,1.922,2.53
			c1,0,1.869-0.784,1.869-2.517C46.787,68.75,46.165,67.841,44.918,67.841 M44.77,73.835c-1.856,0-3.044-1.069-3.044-3.451
			c0-1.973,1.243-3.556,3.301-3.556c1.72,0,3.031,0.946,3.031,3.381C48.058,72.252,46.76,73.835,44.77,73.835"/>
		<path style="fill:#AB004F;" d="M52.711,67.667c-1.055,0-2.055,0.812-2.055,2.609c0,1.733,0.744,2.679,2.055,2.679
			c1.084,0,2.044-0.811,2.044-2.679C54.755,68.655,54.08,67.667,52.711,67.667 M52.562,73.835c-1.798,0-2.961-1.111-2.961-3.478
			c0-1.918,1.191-3.529,3.204-3.529c1.666,0,3.003,0.905,3.003,3.381C55.809,72.225,54.579,73.835,52.562,73.835"/>
		<path style="fill:#AB004F;" d="M66.296,73.714v-4.396c0-1.08-0.257-1.799-1.299-1.799c-1.139,0-2.164,1.122-2.164,2.974v3.222
			h-0.852v-4.41c0-0.96-0.19-1.786-1.298-1.786c-1.176,0-2.153,1.231-2.153,2.974v3.222h-0.85V66.95h0.864
			c0,0.46-0.04,1.134-0.122,1.57l0.028,0.013c0.378-1.042,1.3-1.705,2.437-1.705c1.594,0,1.878,1.176,1.878,1.678
			c0.23-0.652,0.96-1.678,2.395-1.678c1.257,0,1.987,0.649,1.987,2.192v4.694H66.296z"/>
		<path style="fill:#AB004F;" d="M30.379,37.624c-0.625-0.681-1.225-1.071-1.672-1.348c-0.521-0.33-2.403-1.066-3.107-0.219
			c-0.031,0.036-0.012,0.151,0.024,0.214c0.79,1.487,4.248,10.932,4.809,13.654c0,0-2.292-1.046-2.673-1.273
			c-0.484-0.288-6.34-2.772-7.023-2.566c-0.388,0.115-3.137,0.9-3.283,1.078c-0.146,0.18-0.702,0.989-0.645,1.262
			c0.173,0.823,3.643,3.287,4.843,4.436c1.651,1.553,8.675,5.972,10.726,7.026c0.05,0.027,0.691,0.362,0.748,0.37
			c0.02,0.002,0.448,0.174,0.448,0.174s0.709-0.099,0.729-0.101c1.481-0.212,4.371-1.32,5.268-1.479
			c0.911-0.161,4.315-3.513,4.315-3.513s2.859-4.326,3.307-5.128c0.487-0.851,1.827-3.366,1.926-3.613
			c0.177-0.444,0.75-1.696,0.274-3.123l-1.636-0.298c0,0-0.925-0.119-2.035,0.95c-1.142,1.118-3.573,4.289-3.641,4.566
			c-0.012,0.045,0.024-0.305,0.018-0.555c0,0-0.499-6.646-1.614-8.444c-1.126-1.827-1.836-2.053-1.989-2.102
			c-0.27-0.089-0.234-0.122-0.522-0.217c-0.378-0.116-0.941,0.442-1.294,0.914c0,0-0.488,7.714-0.309,9.258
			c0.038,0.331-0.206-0.143-0.244-0.208c-0.192-0.322-2.531-5.803-4.411-8.132C31.714,39.208,30.718,37.999,30.379,37.624"/>
		<path style="fill:#AB004F;" d="M48.39,39.37c0,0,1.063,0.75,2.203,1.192c0.111,0.045,0.749,0.378,0.928,0.401
			c0.179,0.024,0.379-0.05,0.567-0.063l2.438-0.527c0,0,3.392-1.464,3.724-1.654c0,0,3.355-2.181,3.935-2.779
			c0,0,3.01-2.135,3.234-2.319c0.286-0.236,1.307-0.772,1.6-1.796c0.098-0.344,0-0.618-0.283-0.715
			c-0.479-0.164-2.919-0.447-2.919-0.447s-1.948,0.373-2.3,0.561c-0.264,0.138-4.284,2-4.433,2.039
			c-0.146,0.042-0.151,0.116-0.104-0.072c0.044-0.188,0.892-2.303,0.983-2.617c0.092-0.315,0.299-0.804,0.34-1.035
			c0.073-0.383-0.1-1.798-0.164-1.94c-0.048-0.109-0.273-0.316-0.273-0.316s-1.229-0.175-1.526-0.067
			c-0.494,0.178-1.707,1.1-2.063,1.451c-0.091,0.088-1.148,1.372-1.442,1.92c-0.091,0.167-1.132,2.668-1.221,2.746
			c-0.086,0.077-0.082,0.086-0.115-0.092c-0.032-0.174-0.268-2.593-0.268-2.593s-0.133-0.949-0.341-1.865
			c-0.619-2.723-3.933-3.957-3.933-3.957c-0.38,2.015-0.311,1.676-0.369,2.049c-0.133,0.865,0.042,4.859,0.087,5.34
			c0.035,0.387,0.237,2.892,0.453,3.726C47.324,36.781,48.39,39.37,48.39,39.37"/>
		<path style="fill:#AB004F;" d="M50.346,15.175c0.035-0.358,0.099-1.286,0.187-1.724c0.157-0.796,0.395-1.843,0.565-2.143
			c0.41-0.706,1.335-0.977,1.518-0.998c0.181-0.023,1.259,0.318,1.523,0.505c0.102,0.069,1.356,1.413,1.82,2.779
			c0.469,1.405-1.128,4.508-1.352,4.921c-0.316,0.577-3.834,4.574-3.834,4.574s-0.641,0.037-0.797,0.022
			c0,0-1.559-1.932-2.295-2.551c-0.309-0.265-1.648-1.87-1.944-2.303c0,0-1.544-2.219-0.595-4.962
			c0.167-0.481,0.744-0.879,1.291-1.218c0.388-0.249,0.511-0.096,0.633-0.01c0.121,0.097,0.59,0.358,1.672,1.39
			c1.114,1.105,1.177,1.457,1.421,1.799c0.067,0.095,0.123,0.107,0.123,0.107S50.336,15.274,50.346,15.175"/>
		<path style="fill:#AB004F;" d="M42.8,0.188C42.856,0.088,42.933,0,42.933,0c0.316,0.009,1.662,0.145,2.541,1.281
			c0.72,0.949,1.308,2.911,1.901,4.67c0.698,2.011,1.053,3.19,1.183,3.526c0.07,0.166-5.065-1.662-6.16-3.483
			c-1.138-1.924-1.248-2.53-0.67-4.093C41.799,1.705,42.707,0.346,42.8,0.188"/>
		<path style="fill:#C9006C;" d="M68.088,81.335c0,0.536-0.253,1.029-0.676,1.029c-0.367,0-0.537-0.303-0.537-0.891
			c0-0.777,0.328-1.067,0.789-1.067c0.139,0,0.277,0.019,0.424,0.051V81.335z M68.889,82.963v-4.607h-0.801v1.439
			c-0.14-0.019-0.266-0.026-0.398-0.026c-1.042,0-1.66,0.732-1.66,1.793c0,0.897,0.379,1.471,1.143,1.471
			c0.479,0,0.827-0.246,0.991-0.593h0.013c-0.025,0.17-0.038,0.372-0.038,0.523H68.889z M65.365,82.963V80.76
			c0-0.548-0.227-1.003-0.933-1.003c-0.512,0-0.878,0.259-1.067,0.631l-0.006-0.006c0.031-0.165,0.044-0.411,0.044-0.555H62.64
			v3.137h0.808v-1.515c0-0.55,0.321-1.017,0.732-1.017c0.297,0,0.386,0.195,0.386,0.524v2.007H65.365z M61.163,80.976h-1.155
			c0.043-0.379,0.277-0.626,0.612-0.626C60.961,80.35,61.176,80.584,61.163,80.976 M61.964,81.159c0-0.777-0.403-1.401-1.319-1.401
			c-0.94,0-1.47,0.706-1.47,1.666c0,1.105,0.555,1.603,1.552,1.603c0.393,0,0.789-0.07,1.124-0.202L61.774,82.2
			c-0.271,0.127-0.604,0.196-0.914,0.196c-0.582,0-0.872-0.285-0.866-0.872h1.944C61.957,81.392,61.964,81.266,61.964,81.159
			 M59.016,82.963l-1.181-1.704l1.099-1.433H57.95l-0.916,1.307v-2.777h-0.808v4.607h0.808v-1.553l0.972,1.553H59.016z
			 M54.75,80.976h-1.155c0.043-0.379,0.277-0.626,0.611-0.626C54.548,80.35,54.763,80.584,54.75,80.976 M55.551,81.159
			c0-0.777-0.403-1.401-1.319-1.401c-0.939,0-1.47,0.706-1.47,1.666c0,1.105,0.555,1.603,1.552,1.603
			c0.392,0,0.789-0.07,1.124-0.202L55.361,82.2c-0.271,0.127-0.605,0.196-0.914,0.196c-0.582,0-0.872-0.285-0.866-0.872h1.944
			C55.544,81.392,55.551,81.266,55.551,81.159 M52.503,79.757c-0.543-0.044-0.846,0.302-0.997,0.7h-0.013
			c0.037-0.221,0.056-0.473,0.056-0.631h-0.762v3.137h0.807v-1.281c0-0.871,0.29-1.25,0.871-1.13L52.503,79.757z M49.277,81.316
			c0,0.777-0.334,1.067-0.789,1.067c-0.164,0-0.297-0.019-0.424-0.057v-0.872c0-0.537,0.253-1.029,0.676-1.029
			C49.107,80.425,49.277,80.729,49.277,81.316 M50.123,81.228c0-0.928-0.404-1.464-1.148-1.464c-0.474,0-0.809,0.221-0.985,0.586
			h-0.013c0.025-0.163,0.032-0.372,0.032-0.523h-0.75v4.658h0.806v-1.502c0.134,0.018,0.253,0.025,0.405,0.025
			C49.556,83.007,50.123,82.32,50.123,81.228 M46.568,81.992c0-1.017-1.286-0.789-1.286-1.301c0-0.195,0.151-0.321,0.467-0.321
			c0.196,0,0.403,0.031,0.58,0.082l0.026-0.637c-0.189-0.032-0.392-0.057-0.574-0.057c-0.885,0-1.332,0.454-1.332,1.003
			c0,1.067,1.268,0.752,1.268,1.307c0,0.208-0.202,0.334-0.511,0.334c-0.24,0-0.48-0.044-0.675-0.095l-0.019,0.662
			c0.2,0.032,0.429,0.057,0.655,0.057C46.027,83.026,46.568,82.61,46.568,81.992 M44.399,78.356c-0.165-0.038-0.342-0.05-0.512-0.05
			c-0.858,0-1.249,0.416-1.249,1.269v0.252H42.09v0.625h0.549v2.512h0.801v-2.512h0.731v-0.625h-0.731v-0.265
			c0-0.417,0.157-0.6,0.512-0.6c0.119,0,0.265,0.012,0.391,0.057L44.399,78.356z M41.602,78.356h-0.807v4.607h0.807V78.356z
			 M39.318,80.976h-1.156c0.045-0.379,0.278-0.626,0.613-0.626C39.116,80.35,39.331,80.584,39.318,80.976 M40.12,81.159
			c0-0.777-0.404-1.401-1.319-1.401c-0.941,0-1.471,0.706-1.471,1.666c0,1.105,0.555,1.603,1.553,1.603
			c0.391,0,0.789-0.07,1.122-0.202L39.931,82.2c-0.271,0.127-0.605,0.196-0.916,0.196c-0.581,0-0.871-0.285-0.865-0.872h1.944
			C40.113,81.392,40.12,81.266,40.12,81.159 M36.851,82.963v-0.738h-0.549c-0.234,0-0.581,0-0.713,0.006l1.236-1.831v-0.574h-2.196
			v0.719h0.556c0.302,0,0.549-0.006,0.669-0.013l-1.263,1.856v0.574H36.851z M33.864,82.963V80.76c0-0.548-0.227-1.003-0.933-1.003
			c-0.512,0-0.879,0.259-1.067,0.631l-0.007-0.006c0.031-0.165,0.045-0.411,0.045-0.555h-0.764v3.137h0.808v-1.515
			c0-0.55,0.322-1.017,0.732-1.017c0.297,0,0.385,0.195,0.385,0.524v2.007H33.864z M29.447,81.651c0,0.378-0.271,0.757-0.67,0.757
			c-0.233,0-0.372-0.133-0.372-0.335c0-0.253,0.19-0.499,1.042-0.499V81.651z M30.272,82.963c-0.012-0.259-0.019-0.555-0.019-0.808
			v-1.307c0-0.681-0.283-1.091-1.293-1.091c-0.405,0-0.808,0.083-1.123,0.196l0.069,0.674c0.265-0.151,0.644-0.246,0.928-0.246
			c0.455,0,0.612,0.17,0.612,0.499v0.17c-1.067,0-1.811,0.397-1.811,1.148c0,0.505,0.328,0.827,0.895,0.827
			c0.468,0,0.853-0.246,1.005-0.599l0.006,0.006c-0.025,0.165-0.032,0.348-0.032,0.53H30.272z M27.516,79.827h-0.857l-0.506,1.439
			c-0.074,0.214-0.139,0.455-0.189,0.669h-0.013c-0.057-0.228-0.132-0.48-0.208-0.694l-0.499-1.414h-0.883l1.161,3.137h0.82
			L27.516,79.827z"/>
	</g>
</g>
</svg>
