<?xml version="1.0" encoding="utf-8"?>
<!-- Generator: Adobe Illustrator 18.1.1, SVG Export Plug-In . SVG Version: 6.00 Build 0)  -->
<svg version="1.1" id="Layer_1" xmlns="http://www.w3.org/2000/svg" xmlns:xlink="http://www.w3.org/1999/xlink" x="0px" y="0px"
	 viewBox="0 0 17.502 24.767" style="enable-background:new 0 0 17.502 24.767;" xml:space="preserve">
<g>
	<path style="fill:#FFFFFF;" d="M16.994,17.402c0,0,0.399-1.463,0.427-2.889c0.006-0.139,0.116-0.97,0.07-1.175
		c-0.045-0.206-0.205-0.397-0.295-0.596l-1.548-2.462c0,0-2.952-3.129-3.291-3.418c0,0-3.722-2.807-4.606-3.202
		c0,0-3.535-2.446-3.825-2.618C3.554,0.823,2.561-0.082,1.325,0.006C0.908,0.035,0.648,0.251,0.654,0.601
		c0.013,0.59,0.673,3.375,0.673,3.375s1.185,1.985,1.532,2.294c0.254,0.234,3.893,3.895,3.994,4.043
		c0.104,0.144,0.188,0.119-0.037,0.143c-0.223,0.025-2.874-0.06-3.254-0.034c-0.38,0.024-0.998-0.007-1.268,0.04
		c-0.447,0.072-1.927,0.826-2.057,0.954C0.137,11.511,0,11.84,0,11.84s0.297,1.415,0.535,1.698c0.39,0.471,1.881,1.431,2.408,1.681
		c0.132,0.066,1.958,0.712,2.675,0.816c0.219,0.034,3.37,0.177,3.49,0.242c0.118,0.064,0.127,0.055-0.055,0.162
		c-0.178,0.105-2.728,1.328-2.728,1.328s-0.986,0.524-1.905,1.118c-2.733,1.762-2.763,5.883-2.763,5.883
		c2.356-0.386,1.957-0.328,2.39-0.413c0.999-0.198,5.299-1.982,5.806-2.223c0.409-0.192,3.069-1.413,3.896-1.982
		C14.587,19.601,16.994,17.402,16.994,17.402"/>
</g>
</svg>
