<?xml version="1.0" encoding="utf-8"?>
<!-- Generator: Adobe Illustrator 19.0.0, SVG Export Plug-In . SVG Version: 6.00 Build 0)  -->
<svg version="1.1" id="Layer_1" xmlns="http://www.w3.org/2000/svg" xmlns:xlink="http://www.w3.org/1999/xlink" x="0px" y="0px"
	 viewBox="0 0 35.047 34.279" style="enable-background:new 0 0 35.047 34.279;" xml:space="preserve">
<g>
	<path d="M0,27.722c0,0,15.298-14.063,15.298-19.254c0-3.017-3.278,2.221-3.278,1.093c0,1.095-0.819,5.595-0.819,5.595
		s0.273,3.42,0,0.416c-0.273-3.004-2.458-2.459-1.639-7.103c0.336-1.9,3.267-5.956,7.103-5.189c6.83,1.364,6.01,4.099,8.469,6.414
		c2.329,2.19,6.83,0.818,9.289,0c2.459-0.82-2.732,3.148-8.742,3.693c-2.72,0.248-4.917,0.273-4.917,0.273l-1.367,1.367l0.274,1.363
		c0,0,4.644,8.329,1.64,17.889c0,0-2.731-12.971-5.463-14.334C13.112,18.575,16.119,21.165,0,27.722"/>
	<path d="M22.738,4.248c0.841,1.247,2.534,1.577,3.782,0.735c1.247-0.842,1.578-2.535,0.735-3.781
		c-0.84-1.249-2.535-1.577-3.782-0.737C22.227,1.309,21.898,2.999,22.738,4.248"/>
</g>
</svg>
