<?xml version="1.0" encoding="utf-8"?>
<!-- Generator: Adobe Illustrator 18.1.1, SVG Export Plug-In . SVG Version: 6.00 Build 0)  -->
<svg version="1.1" id="Layer_1" xmlns="http://www.w3.org/2000/svg" xmlns:xlink="http://www.w3.org/1999/xlink" x="0px" y="0px"
	 viewBox="0 0 23.4 23.456" style="enable-background:new 0 0 23.4 23.456;" xml:space="preserve">
<path style="fill:#A5A5A5;" d="M14.09,0C8.956,0,4.779,4.177,4.779,9.31c0,2.079,0.699,4.082,1.969,5.71L0,21.769l1.688,1.688
	l6.754-6.755c1.611,1.23,3.59,1.919,5.648,1.919c5.134,0,9.311-4.176,9.311-9.31C23.4,4.177,19.224,0,14.09,0z M14.09,16.233
	c-1.983,0-3.873-0.852-5.188-2.339c-1.12-1.265-1.736-2.893-1.736-4.585c0-3.817,3.105-6.923,6.924-6.923
	c3.817,0,6.924,3.105,6.924,6.923S17.907,16.233,14.09,16.233z"/>
</svg>
